<svg xmlns="http://www.w3.org/2000/svg" width="161" height="44" viewBox="0 0 161 44" role="img" aria-label="Working toward human-shaped">
<title>Working toward human-shaped</title>
<rect x="0.5" y="0.5" width="160" height="43" rx="10" fill="#FFFFFF" stroke="#DDD8CF"/>
<path fill="#A23F22" d="M15.8 17Q15.7 16.5 15.5 16Q15.4 15.5 15.2 15L14.9 14.1Q14.7 13.5 14.6 12.9Q14.4 12.4 14.2 11.8L15.6 11.7Q15.8 12.3 15.9 12.9Q16.1 13.6 16.2 14.2L16.6 15.6H16.7L17.1 14.1Q17.2 13.5 17.4 13Q17.5 12.4 17.7 11.8H18.9Q19.1 12.3 19.2 12.9Q19.4 13.5 19.5 14.1L19.9 15.6H20L20.4 14.1Q20.6 13.5 20.7 12.9Q20.9 12.3 21 11.8H22.4Q22.2 12.3 22.1 12.9Q21.9 13.5 21.7 14.1L21.4 15Q21.2 15.5 21.1 16Q20.9 16.5 20.8 17H19.2Q19.1 16.5 19 15.9Q18.8 15.4 18.7 14.9L18.3 13.6H18.2L17.9 14.9Q17.7 15.4 17.6 15.9Q17.4 16.5 17.3 17ZM25.6 17.1Q24.9 17.1 24.4 16.9Q23.8 16.7 23.5 16.3Q23.2 15.9 23 15.4Q22.8 14.9 22.8 14.4Q22.8 13.6 23.1 13Q23.5 12.3 24.1 12Q24.7 11.6 25.5 11.6Q26.2 11.6 26.7 11.8Q27.2 12 27.6 12.4Q27.9 12.8 28.1 13.3Q28.3 13.8 28.3 14.4Q28.3 15.2 27.9 15.8Q27.6 16.4 27 16.8Q26.4 17.1 25.6 17.1ZM25.6 16Q26 16 26.3 15.8Q26.6 15.6 26.8 15.2Q26.9 14.8 26.9 14.4Q26.9 13.9 26.7 13.5Q26.6 13.1 26.3 12.9Q26 12.7 25.6 12.7Q25.1 12.7 24.8 13Q24.5 13.2 24.3 13.5Q24.2 13.9 24.2 14.4Q24.2 14.8 24.3 15.2Q24.5 15.6 24.8 15.8Q25.1 16 25.6 16ZM29.4 17Q29.4 16.4 29.4 15.9Q29.4 15.4 29.4 14.7V14.2Q29.4 13.6 29.4 13Q29.4 12.4 29.4 11.8L30.5 11.7L30.6 12.7H30.7Q30.9 12.3 31.2 12Q31.4 11.8 31.7 11.7Q32 11.6 32.2 11.6Q32.3 11.6 32.5 11.7Q32.6 11.7 32.8 11.7L32.6 13Q32.5 13 32.3 13Q32.1 13 32 13Q31.8 13 31.6 13Q31.5 13.1 31.3 13.2Q31.2 13.3 31 13.5Q30.9 13.7 30.7 14V14.8Q30.7 15.4 30.7 15.9Q30.7 16.4 30.7 17ZM37.1 17Q36.8 16.7 36.5 16.3Q36.3 16 36 15.7L35.3 14.8H34.9V13.9H35.3L35.9 13.2Q36.2 12.8 36.5 12.5Q36.8 12.1 37 11.8H38.6Q38.2 12.2 37.8 12.7Q37.4 13.2 37 13.6L36.2 14.6L36.2 13.9L37.1 15.1Q37.5 15.6 37.9 16.1Q38.3 16.5 38.7 17ZM33.7 17Q33.7 16.4 33.7 15.9Q33.7 15.4 33.7 14.7V11.8Q33.7 11.2 33.7 10.5Q33.7 9.9 33.7 9.3L35 9.2Q35 9.8 35 10.5Q35 11.1 35 11.8V15Q35 15.5 35 16Q35 16.5 35 17ZM39.6 17Q39.6 16.4 39.6 15.9Q39.6 15.4 39.6 14.7V14.2Q39.6 13.7 39.6 13.3Q39.6 12.9 39.6 12.5Q39.6 12.1 39.6 11.8L41 11.7Q41 12.1 41 12.5Q41 12.9 41 13.3Q41 13.7 41 14.2V14.7Q41 15.4 41 15.9Q41 16.4 41 17ZM40.3 10.8Q39.9 10.8 39.7 10.6Q39.4 10.4 39.4 10Q39.4 9.6 39.7 9.4Q39.9 9.2 40.3 9.2Q40.7 9.2 40.9 9.5Q41.1 9.7 41.1 10Q41.1 10.4 40.9 10.6Q40.7 10.8 40.3 10.8ZM42.5 17Q42.5 16.4 42.5 15.9Q42.5 15.4 42.5 14.7V14.2Q42.5 13.6 42.5 13Q42.5 12.4 42.5 11.8L43.6 11.7L43.6 12.6H43.8Q43.9 12.4 44.2 12.2Q44.5 11.9 44.8 11.8Q45.1 11.6 45.6 11.6Q46.4 11.6 46.8 12.1Q47.2 12.6 47.2 13.5Q47.2 13.8 47.2 14.1Q47.2 14.4 47.2 14.7Q47.2 15.4 47.2 15.9Q47.2 16.4 47.2 17H45.8Q45.8 16.4 45.8 15.9Q45.8 15.4 45.8 14.8V13.9Q45.8 13.4 45.6 13.1Q45.5 12.9 45 12.9Q44.7 12.9 44.5 13Q44.3 13.1 44.1 13.3Q43.9 13.4 43.8 13.7V14.8Q43.8 15.4 43.8 15.9Q43.8 16.4 43.8 17ZM50.3 19.1Q49.7 19.1 49.3 19Q48.9 18.9 48.7 18.8Q48.5 18.6 48.4 18.4Q48.3 18.2 48.3 17.9Q48.3 17.6 48.4 17.3Q48.6 17.1 48.8 17Q49 16.9 49.2 16.8V16.7Q49.1 16.7 49 16.6Q48.9 16.5 48.8 16.4Q48.7 16.2 48.7 15.9Q48.7 15.8 48.7 15.6Q48.8 15.5 48.9 15.3Q49.1 15.2 49.3 15.1V15Q49.1 14.9 49 14.8Q48.8 14.7 48.6 14.5Q48.4 14.3 48.3 14Q48.2 13.7 48.2 13.4Q48.2 12.9 48.4 12.5Q48.7 12.1 49.2 11.9Q49.6 11.6 50.4 11.6Q50.6 11.6 50.8 11.7Q51 11.7 51.3 11.7Q51.5 11.8 51.8 11.8H53.3V12.7Q52.8 12.7 52.4 12.7Q51.9 12.7 51.4 12.7L51.8 12.1Q52.2 12.3 52.3 12.7Q52.5 13 52.5 13.4Q52.5 14 52.3 14.3Q52.1 14.7 51.7 14.9Q51.3 15.1 50.8 15.2Q50.3 15.3 50.1 15.4Q49.9 15.5 49.9 15.7Q49.9 15.8 50 15.8Q50.1 15.9 50.3 15.9Q50.5 15.9 50.8 15.9H51Q51.7 15.9 52.2 16.1Q52.7 16.2 52.9 16.5Q53.2 16.7 53.2 17.2Q53.2 17.7 52.9 18.1Q52.7 18.5 52.2 18.7Q51.8 18.9 51.3 19Q50.8 19.1 50.3 19.1ZM50.5 18.1Q51 18.1 51.3 18Q51.6 17.9 51.8 17.7Q51.9 17.6 51.9 17.5Q51.9 17.3 51.8 17.2Q51.7 17.1 51.4 17Q51.2 17 50.7 17H50.5Q50.3 17 50 17.1Q49.8 17.2 49.6 17.3Q49.4 17.4 49.4 17.6Q49.4 17.7 49.5 17.8Q49.6 17.9 49.7 18Q49.8 18.1 50 18.1Q50.2 18.1 50.5 18.1ZM50.3 14.4Q50.5 14.3 50.6 14.3Q50.8 14.2 51 14.1Q51.1 14 51.2 13.9Q51.3 13.8 51.3 13.6Q51.3 13.3 51.2 13.1Q51 12.9 50.8 12.8Q50.6 12.7 50.3 12.7Q50.1 12.7 49.9 12.8Q49.7 12.9 49.5 13.1Q49.4 13.2 49.4 13.5Q49.4 13.7 49.5 13.9Q49.7 14.1 49.9 14.2Q50.1 14.3 50.3 14.4ZM58.4 17.1Q57.9 17.1 57.5 17Q57.1 16.8 56.9 16.4Q56.6 16 56.6 15.4Q56.6 15 56.6 14.6Q56.6 14.2 56.6 13.8Q56.6 13.4 56.6 13Q56.6 12.6 56.6 12.1Q56.6 11.5 56.6 11.1Q56.6 10.6 56.6 10.1L58 9.8Q58 10.2 58 10.6Q58 10.9 58 11.3Q58 11.7 58 12.1V15Q58 15.5 58.2 15.8Q58.4 16 58.8 16Q59 16 59.2 16Q59.4 15.9 59.6 15.8L59.7 16.9Q59.5 17 59.3 17Q59.1 17.1 58.9 17.1Q58.7 17.1 58.4 17.1ZM55.7 12.8V11.8H59.6V12.8Q59.1 12.8 58.6 12.8Q58.1 12.8 57.6 12.8H57ZM63 17.1Q62.3 17.1 61.8 16.9Q61.3 16.7 61 16.3Q60.6 15.9 60.5 15.4Q60.3 14.9 60.3 14.4Q60.3 13.6 60.6 13Q60.9 12.3 61.5 12Q62.1 11.6 63 11.6Q63.7 11.6 64.2 11.8Q64.7 12 65 12.4Q65.4 12.8 65.5 13.3Q65.7 13.8 65.7 14.4Q65.7 15.2 65.4 15.8Q65.1 16.4 64.5 16.8Q63.9 17.1 63 17.1ZM63 16Q63.5 16 63.8 15.8Q64.1 15.6 64.2 15.2Q64.4 14.8 64.4 14.4Q64.4 13.9 64.2 13.5Q64 13.1 63.7 12.9Q63.4 12.7 63 12.7Q62.6 12.7 62.3 13Q62 13.2 61.8 13.5Q61.6 13.9 61.6 14.4Q61.6 14.8 61.8 15.2Q62 15.6 62.3 15.8Q62.6 16 63 16ZM67.8 17Q67.6 16.5 67.5 16Q67.3 15.5 67.1 15L66.9 14.1Q66.7 13.5 66.5 12.9Q66.3 12.4 66.1 11.8L67.5 11.7Q67.7 12.3 67.9 12.9Q68 13.6 68.2 14.2L68.6 15.6H68.7L69 14.1Q69.2 13.5 69.3 13Q69.5 12.4 69.6 11.8H70.9Q71 12.3 71.2 12.9Q71.3 13.5 71.5 14.1L71.8 15.6H72L72.3 14.1Q72.5 13.5 72.6 12.9Q72.8 12.3 72.9 11.8H74.4Q74.2 12.3 74 12.9Q73.8 13.5 73.6 14.1L73.3 15Q73.2 15.5 73 16Q72.9 16.5 72.7 17H71.2Q71 16.5 70.9 15.9Q70.7 15.4 70.6 14.9L70.2 13.6H70.1L69.8 14.9Q69.6 15.4 69.5 15.9Q69.4 16.5 69.2 17ZM76.4 17.1Q76 17.1 75.6 16.9Q75.3 16.8 75.1 16.4Q74.9 16.1 74.9 15.6Q74.9 15.1 75 14.8Q75.2 14.5 75.4 14.3Q75.7 14.1 76 14Q76.3 13.9 76.6 13.9L78.1 13.7Q78.1 13.3 78 13.1Q77.8 12.9 77.6 12.8Q77.3 12.7 77 12.7Q76.8 12.7 76.6 12.8Q76.4 12.8 76.2 12.9Q75.9 12.9 75.7 13Q75.4 13.1 75.2 13.2L75.1 12Q75.3 12 75.6 11.9Q75.8 11.8 76.1 11.8Q76.4 11.7 76.7 11.7Q77 11.6 77.3 11.6Q78 11.6 78.4 11.8Q78.9 12 79.1 12.4Q79.4 12.8 79.4 13.5Q79.4 13.7 79.4 14.1Q79.4 14.5 79.4 14.8V15.4Q79.4 15.7 79.4 16.1Q79.4 16.5 79.4 17H78.2L78.1 16.3H78Q77.8 16.5 77.6 16.7Q77.4 16.9 77.1 17Q76.8 17.1 76.4 17.1ZM76.9 16.1Q77.1 16.1 77.3 16Q77.6 15.9 77.7 15.7Q77.9 15.5 78.1 15.2V14.4Q78 14.4 77.9 14.5Q77.8 14.5 77.5 14.6Q77.3 14.6 76.9 14.7Q76.7 14.7 76.5 14.8Q76.4 14.9 76.3 15.1Q76.2 15.3 76.2 15.5Q76.2 15.8 76.4 15.9Q76.6 16.1 76.9 16.1ZM80.7 17Q80.7 16.4 80.7 15.9Q80.7 15.4 80.7 14.7V14.2Q80.7 13.6 80.7 13Q80.7 12.4 80.7 11.8L81.8 11.7L81.9 12.7H82Q82.2 12.3 82.5 12Q82.7 11.8 83 11.7Q83.3 11.6 83.5 11.6Q83.6 11.6 83.8 11.7Q83.9 11.7 84.1 11.7L84 13Q83.8 13 83.6 13Q83.5 13 83.3 13Q83.1 13 82.9 13Q82.8 13.1 82.6 13.2Q82.5 13.3 82.3 13.5Q82.2 13.7 82 14V14.8Q82 15.4 82 15.9Q82 16.4 82 17ZM86.7 17.1Q86 17.1 85.5 16.7Q85 16.4 84.8 15.7Q84.5 15.1 84.5 14.4Q84.5 13.6 84.8 13Q85 12.4 85.5 12Q86 11.6 86.7 11.6Q87 11.6 87.3 11.7Q87.6 11.8 87.8 12Q88 12.1 88.1 12.3H88.3V11.8Q88.3 11.2 88.3 10.6Q88.3 9.9 88.3 9.3L89.6 9.2Q89.6 9.8 89.6 10.5Q89.6 11.1 89.6 11.8V14.7Q89.6 15.4 89.6 15.9Q89.6 16.4 89.6 17H88.5L88.4 16.3H88.3Q88.1 16.6 87.8 16.8Q87.6 16.9 87.3 17Q87 17.1 86.7 17.1ZM87.2 16Q87.4 16 87.6 15.9Q87.8 15.8 88 15.7Q88.1 15.5 88.3 15.3V13.4Q88.1 13.2 88 13Q87.8 12.9 87.6 12.9Q87.4 12.8 87.2 12.8Q86.7 12.8 86.5 13Q86.2 13.2 86 13.6Q85.9 13.9 85.9 14.4Q85.9 14.8 86 15.2Q86.2 15.5 86.5 15.8Q86.7 16 87.2 16Z"/>
<path fill="#1A1D21" d="M15.2 35.5Q15.2 34.5 15.2 33.5Q15.2 32.6 15.2 31.4V26.1Q15.2 25 15.2 23.8Q15.2 22.7 15.2 21.6L18 21.3Q18 22.4 18 23.6Q18 24.8 18 26.1V27.4H18.2Q18.5 27 18.9 26.6Q19.3 26.2 19.8 26Q20.4 25.8 21.1 25.8Q22.5 25.8 23.2 26.6Q24 27.5 24 29.1Q24 29.8 24 30.3Q24 30.8 24 31.4Q24 32.5 24 33.5Q24 34.5 24 35.5H21.2Q21.2 34.5 21.2 33.5Q21.2 32.6 21.2 31.5V30Q21.2 29.1 20.9 28.7Q20.6 28.3 19.9 28.3Q19.5 28.3 19.1 28.5Q18.8 28.6 18.5 28.9Q18.2 29.2 18 29.6V31.5Q18 32.6 18 33.5Q18 34.5 18 35.5ZM28.4 35.7Q27 35.7 26.3 34.9Q25.5 34.1 25.5 32.4Q25.5 31.8 25.5 31.3Q25.5 30.8 25.5 30.3Q25.5 29.4 25.5 28.7Q25.5 28 25.5 27.3Q25.5 26.7 25.5 26L28.3 25.9Q28.3 27 28.3 27.9Q28.3 28.9 28.3 30V31.6Q28.3 32.4 28.6 32.9Q28.9 33.3 29.6 33.3Q30 33.3 30.3 33.1Q30.7 32.9 31 32.7Q31.3 32.4 31.5 32V30Q31.5 28.9 31.5 28Q31.5 27 31.5 26H34.3Q34.3 27 34.3 28Q34.3 29 34.3 30.3V31.4Q34.3 32.6 34.3 33.5Q34.3 34.5 34.3 35.5H31.9L31.8 34H31.6Q31.3 34.4 30.8 34.8Q30.3 35.2 29.8 35.5Q29.2 35.7 28.4 35.7ZM36.1 35.5Q36.1 34.5 36.1 33.5Q36.1 32.6 36.1 31.4V30.4Q36.1 29.4 36.1 28.3Q36.1 27.1 36.1 26L38.4 25.9L38.5 27.5H38.7Q39.1 27.1 39.5 26.7Q39.9 26.3 40.5 26Q41.1 25.8 41.8 25.8Q42.9 25.8 43.5 26.3Q44.1 26.9 44.3 27.9L44.5 27.9Q44.6 28.2 44.6 28.5Q44.6 28.8 44.6 29.1Q44.6 29.8 44.6 30.3Q44.6 30.8 44.6 31.4Q44.6 32.5 44.6 33.5Q44.6 34.5 44.6 35.5H41.9Q41.9 34.5 41.9 33.5Q41.9 32.6 41.9 31.5V30Q41.9 29.1 41.6 28.7Q41.3 28.3 40.7 28.3Q40.3 28.3 39.9 28.5Q39.6 28.6 39.3 28.9Q39 29.2 38.8 29.6V31.5Q38.8 32.6 38.8 33.5Q38.8 34.5 38.8 35.5ZM47.7 35.5Q47.7 34.5 47.7 33.5Q47.7 32.6 47.7 31.5V30Q47.7 29.1 47.4 28.7Q47.1 28.3 46.4 28.3Q46 28.3 45.7 28.5Q45.4 28.6 45.1 28.9Q44.8 29.2 44.6 29.6L44.2 27.6H44.4Q44.8 27.1 45.2 26.7Q45.7 26.3 46.3 26Q46.9 25.8 47.6 25.8Q49 25.8 49.7 26.6Q50.4 27.5 50.4 29.1Q50.4 29.8 50.4 30.3Q50.4 30.8 50.4 31.4Q50.4 32.5 50.4 33.5Q50.4 34.5 50.4 35.5ZM54.4 35.7Q53.6 35.7 53 35.4Q52.4 35 52 34.4Q51.7 33.8 51.7 32.9Q51.7 32.1 52 31.6Q52.2 31 52.7 30.7Q53.1 30.4 53.7 30.2Q54.2 30 54.7 29.9L57.4 29.5Q57.4 28.9 57.2 28.6Q56.9 28.3 56.5 28.2Q56.1 28 55.5 28Q55.2 28 54.8 28.1Q54.4 28.1 54 28.2Q53.6 28.3 53.1 28.5Q52.7 28.7 52.2 28.9L52.1 26.5Q52.4 26.4 52.9 26.3Q53.3 26.1 53.9 26Q54.4 25.9 55 25.8Q55.6 25.8 56.2 25.8Q57.4 25.8 58.2 26.1Q59.1 26.5 59.5 27.2Q60 27.9 60 29.1Q60 29.6 60 30.3Q60 30.9 60 31.5V32.4Q60 33.1 60 33.9Q60 34.6 60 35.5H57.6L57.4 34.2H57.2Q56.9 34.6 56.6 34.9Q56.2 35.3 55.6 35.5Q55.1 35.7 54.4 35.7ZM55.5 33.6Q55.8 33.6 56.2 33.4Q56.5 33.3 56.8 33Q57.1 32.7 57.3 32.3V30.8Q57.2 30.9 57 30.9Q56.8 31 56.5 31.1Q56.1 31.2 55.5 31.3Q55.2 31.4 54.9 31.5Q54.7 31.7 54.5 32Q54.4 32.2 54.4 32.6Q54.4 33.1 54.7 33.4Q55 33.6 55.5 33.6ZM61.7 35.5Q61.7 34.5 61.7 33.5Q61.7 32.6 61.7 31.4V30.4Q61.7 29.4 61.7 28.3Q61.7 27.1 61.7 26L64 25.9L64.1 27.5H64.4Q64.7 27.1 65.1 26.7Q65.6 26.3 66.2 26Q66.8 25.8 67.6 25.8Q69 25.8 69.7 26.6Q70.5 27.5 70.5 29.1Q70.5 29.8 70.5 30.3Q70.5 30.8 70.5 31.4Q70.5 32.5 70.5 33.5Q70.5 34.5 70.5 35.5H67.7Q67.7 34.5 67.7 33.5Q67.7 32.6 67.7 31.5V30Q67.7 29.1 67.4 28.7Q67.1 28.3 66.4 28.3Q66 28.3 65.6 28.5Q65.3 28.6 65 28.9Q64.7 29.2 64.5 29.6V31.5Q64.5 32.6 64.5 33.5Q64.5 34.5 64.5 35.5ZM91.3 35.7Q90.6 35.7 90 35.7Q89.4 35.6 88.8 35.4Q88.3 35.3 87.9 35.1L88.1 32.7Q88.5 33 89 33.2Q89.5 33.4 90.1 33.5Q90.6 33.6 91.2 33.6Q91.5 33.6 91.9 33.5Q92.2 33.5 92.3 33.3Q92.5 33.1 92.5 32.7Q92.5 32.4 92.3 32.2Q92.1 32.1 91.7 31.9Q91.3 31.8 90.5 31.6Q89.7 31.4 89.1 31Q88.5 30.7 88.2 30.2Q87.9 29.6 87.9 28.8Q87.9 27.4 88.8 26.6Q89.8 25.8 91.4 25.8Q92.1 25.8 92.7 25.9Q93.3 26 93.9 26.1Q94.4 26.3 94.8 26.4L94.6 28.8Q94.1 28.5 93.6 28.4Q93.1 28.2 92.6 28.1Q92.2 28 91.9 28Q91.5 28 91.3 28.1Q91 28.1 90.9 28.3Q90.7 28.5 90.7 28.8Q90.7 29.1 90.9 29.3Q91 29.4 91.3 29.6Q91.7 29.8 92.3 30Q93.4 30.2 94 30.5Q94.7 30.9 95 31.3Q95.3 31.8 95.3 32.7Q95.3 33.6 94.9 34.3Q94.5 35 93.6 35.4Q92.7 35.7 91.3 35.7ZM96.6 35.5Q96.6 34.5 96.6 33.5Q96.6 32.6 96.6 31.4V26.1Q96.6 25 96.6 23.8Q96.6 22.7 96.6 21.6L99.4 21.3Q99.4 22.4 99.4 23.6Q99.4 24.8 99.4 26.1V27.4H99.6Q99.9 27 100.3 26.6Q100.7 26.2 101.3 26Q101.8 25.8 102.5 25.8Q103.9 25.8 104.7 26.6Q105.4 27.5 105.4 29.1Q105.4 29.8 105.4 30.3Q105.4 30.8 105.4 31.4Q105.4 32.5 105.4 33.5Q105.4 34.5 105.4 35.5H102.6Q102.6 34.5 102.6 33.5Q102.6 32.6 102.6 31.5V30Q102.6 29.1 102.4 28.7Q102.1 28.3 101.3 28.3Q100.9 28.3 100.6 28.5Q100.2 28.6 99.9 28.9Q99.6 29.2 99.4 29.6V31.5Q99.4 32.6 99.4 33.5Q99.4 34.5 99.4 35.5ZM109.4 35.7Q108.6 35.7 108 35.4Q107.3 35 107 34.4Q106.7 33.8 106.7 32.9Q106.7 32.1 106.9 31.6Q107.2 31 107.7 30.7Q108.1 30.4 108.7 30.2Q109.2 30 109.7 29.9L112.4 29.5Q112.4 28.9 112.2 28.6Q111.9 28.3 111.5 28.2Q111 28 110.5 28Q110.1 28 109.8 28.1Q109.4 28.1 109 28.2Q108.5 28.3 108.1 28.5Q107.7 28.7 107.2 28.9L107.1 26.5Q107.4 26.4 107.9 26.3Q108.3 26.1 108.9 26Q109.4 25.9 110 25.8Q110.6 25.8 111.2 25.8Q112.4 25.8 113.2 26.1Q114 26.5 114.5 27.2Q114.9 27.9 114.9 29.1Q114.9 29.6 114.9 30.3Q114.9 30.9 114.9 31.5V32.4Q114.9 33.1 114.9 33.9Q114.9 34.6 114.9 35.5H112.6L112.4 34.2H112.2Q111.9 34.6 111.5 34.9Q111.1 35.3 110.6 35.5Q110.1 35.7 109.4 35.7ZM110.5 33.6Q110.8 33.6 111.1 33.4Q111.5 33.3 111.8 33Q112.1 32.7 112.3 32.3V30.8Q112.2 30.9 112 30.9Q111.8 31 111.5 31.1Q111.1 31.2 110.5 31.3Q110.1 31.4 109.9 31.5Q109.6 31.7 109.5 32Q109.3 32.2 109.3 32.6Q109.3 33.1 109.7 33.4Q110 33.6 110.5 33.6ZM116.7 39.2Q116.7 38.2 116.7 37.2Q116.7 36.2 116.7 35V30.4Q116.7 29.4 116.7 28.3Q116.7 27.1 116.7 26L119.1 25.9L119.2 27.2H119.4Q119.7 26.7 120.1 26.4Q120.5 26.1 121 25.9Q121.6 25.8 122.2 25.8Q123.4 25.8 124.3 26.4Q125.2 27.1 125.6 28.2Q126 29.3 126 30.8Q126 32.1 125.6 33.2Q125.2 34.4 124.4 35Q123.5 35.7 122.2 35.7Q121.6 35.7 121.2 35.6Q120.7 35.4 120.3 35.2Q119.9 34.9 119.6 34.5H119.4V35.2Q119.4 36.3 119.4 37.2Q119.4 38.1 119.4 39.1ZM121.2 33.4Q121.9 33.4 122.3 33Q122.8 32.6 123 32Q123.2 31.4 123.2 30.8Q123.2 30.1 123 29.5Q122.8 28.9 122.3 28.5Q121.9 28.1 121.2 28.1Q120.8 28.1 120.5 28.2Q120.2 28.3 119.9 28.5Q119.6 28.7 119.4 29V32.3Q119.6 32.6 119.9 32.9Q120.1 33.1 120.4 33.3Q120.8 33.4 121.2 33.4ZM132.2 35.7Q130.3 35.7 129.2 35.1Q128 34.5 127.5 33.3Q126.9 32.2 126.9 30.7Q126.9 29.3 127.4 28.2Q128 27 129 26.4Q130 25.8 131.5 25.8Q132.8 25.8 133.7 26.2Q134.6 26.7 135.1 27.6Q135.6 28.5 135.6 30Q135.6 30.3 135.6 30.6Q135.6 30.9 135.5 31.2L133.2 30.3Q133.2 30.2 133.2 30Q133.2 29.9 133.2 29.8Q133.2 28.8 132.7 28.3Q132.3 27.7 131.5 27.7Q131 27.7 130.6 28Q130.1 28.4 129.9 28.9Q129.6 29.5 129.6 30.3V30.8Q129.6 31.6 129.9 32.2Q130.2 32.8 130.9 33.2Q131.5 33.5 132.5 33.5Q132.9 33.5 133.4 33.4Q133.9 33.3 134.4 33.2Q134.9 33 135.4 32.8L135.4 35.1Q135.1 35.3 134.6 35.4Q134.1 35.6 133.5 35.7Q132.9 35.7 132.2 35.7ZM128 31.2V29.7L133.9 29.6L135.5 30.1V31.2ZM140.3 35.7Q139 35.7 138.2 35Q137.3 34.4 136.9 33.2Q136.5 32.1 136.5 30.8Q136.5 29.3 136.9 28.2Q137.4 27.1 138.2 26.4Q139.1 25.8 140.3 25.8Q140.9 25.8 141.4 25.9Q141.9 26.1 142.2 26.3Q142.6 26.6 142.9 27H143.1V26.1Q143.1 25 143.1 23.8Q143.1 22.7 143.1 21.6L145.8 21.3Q145.8 22.5 145.8 23.6Q145.8 24.8 145.8 26.1V31.4Q145.8 32.6 145.8 33.5Q145.8 34.5 145.8 35.5H143.5L143.3 34.2H143.1Q142.8 34.7 142.4 35.1Q141.9 35.4 141.4 35.6Q140.9 35.7 140.3 35.7ZM141.3 33.4Q141.7 33.4 142.1 33.3Q142.4 33.1 142.6 32.9Q142.9 32.6 143.1 32.3V29Q142.9 28.7 142.6 28.5Q142.3 28.3 142 28.2Q141.7 28.1 141.4 28.1Q140.7 28.1 140.2 28.5Q139.8 28.9 139.5 29.5Q139.3 30.1 139.3 30.8Q139.3 31.4 139.5 32Q139.7 32.6 140.2 33Q140.6 33.4 141.3 33.4Z"/>
<path fill="none" stroke="#A23F22" stroke-width="2.22" stroke-linecap="round" d="M73.45 28.93C74.09 25.76 76.20 23.96 79.27 23.96S84.46 25.76 85.10 28.93"/>
</svg>
